<svg width="255" height="124" viewBox="0 0 255 124" fill="none" xmlns="http://www.w3.org/2000/svg">
<path d="M255 23H201V34H255V57H201V68H255V91H177V84H167V98H227V124H141V56H176V26H78V56H113V124H27V98H87V84H78V91H0V68H53V57H0V34H53V23H0V0H255V23ZM132.751 43.0801C134.564 43.8801 135.884 44.8801 136.711 46.0801C137.538 47.2534 137.951 48.9335 137.951 51.1201C137.951 54.0801 137.178 56.36 135.631 57.96C134.084 59.5598 131.538 60.3737 127.991 60.4004C126.231 60.4004 124.591 60.28 123.071 60.04C121.551 59.8267 120.205 59.5736 119.031 59.2803L119.831 52.8398C119.831 52.8398 120.151 52.8934 120.791 53C121.458 53.1067 122.338 53.2136 123.432 53.3203C124.525 53.427 125.725 53.4805 127.031 53.4805C128.045 53.4805 128.805 53.3334 129.312 53.04C129.818 52.7467 130.071 52.2662 130.071 51.5996C130.071 51.1465 129.951 50.7861 129.711 50.5195C129.471 50.253 129.045 49.9862 128.432 49.7197L127.711 49.4004L131.031 42.3203L132.751 43.0801ZM129.191 30.8398C130.658 30.8398 131.991 30.9067 133.191 31.04C134.391 31.1734 135.351 31.3205 136.071 31.4805C136.791 31.6138 137.151 31.6797 137.151 31.6797L136.352 38.1201C136.352 38.1201 136.018 38.08 135.352 38C134.712 37.92 133.911 37.8531 132.951 37.7998C131.991 37.7198 131.058 37.6797 130.151 37.6797C129.191 37.6797 128.458 37.8268 127.951 38.1201C127.471 38.3868 127.232 38.9066 127.231 39.6797C127.231 40.1062 127.405 40.4531 127.751 40.7197C128.098 40.9864 128.565 41.2529 129.151 41.5195L125.871 48.5195L124.191 47.7598C122.618 47.0398 121.404 46.0799 120.551 44.8799C119.698 43.6799 119.271 41.9328 119.271 39.6396C119.272 36.7067 120.031 34.52 121.551 33.0801C123.097 31.6134 125.645 30.8665 129.191 30.8398Z" fill="#D9D9D9"/>
</svg>
